<!DOCTYPE svg PUBLIC "-//W3C//DTD SVG 1.1//EN" "http://www.w3.org/Graphics/SVG/1.1/DTD/svg11.dtd">
<!-- Uploaded to: SVG Repo, www.svgrepo.com, Transformed by: SVG Repo Mixer Tools -->
<svg fill="#FF8B00" width="800px" height="800px" viewBox="0 0 24 24" xmlns="http://www.w3.org/2000/svg">
<g id="SVGRepo_bgCarrier" stroke-width="0"/>
<g id="SVGRepo_tracerCarrier" stroke-linecap="round" stroke-linejoin="round"/>
<g id="SVGRepo_iconCarrier">
<path d="M21,12.812V16A7,7,0,0,1,7,16V14.92A7.006,7.006,0,0,1,1,8V2A1,1,0,0,1,2,1H5A1,1,0,0,1,5,3H3V8A5,5,0,0,0,13,8V3H11a1,1,0,0,1,0-2h3a1,1,0,0,1,1,1V8a7.006,7.006,0,0,1-6,6.92V16a5,5,0,0,0,10,0V12.812a3,3,0,1,1,2,0Z"/>
</g>
</svg>