<svg xmlns="http://www.w3.org/2000/svg" xmlns:xlink="http://www.w3.org/1999/xlink" fill="none" version="1.1" width="20" height="28" viewBox="0 0 20 28"><defs><clipPath id="master_svg0_3_1283"><rect x="0" y="4" width="20" height="20" rx="0"/></clipPath></defs><g><rect x="0" y="0" width="20" height="28" rx="0" fill="#000000" fill-opacity="0" style="mix-blend-mode:passthrough"/><g><rect x="0" y="0" width="20" height="28" rx="0" fill="#000000" fill-opacity="0" style="mix-blend-mode:passthrough"/><g clip-path="url(#master_svg0_3_1283)"><g transform="matrix(1,0,0,-1,0,48.78125)"><g><path d="M20,34.312505Q19.9609,37.125025,18.6328,39.351525Q17.3047,41.617225000000005,15.0391,42.945325Q12.8125,44.273425,10,44.312525Q7.1875,44.273425,4.96094,42.945325Q2.69531,41.617225000000005,1.36719,39.351525Q0.0390625,37.125025,0,34.312505Q0.078125,30.718745,2.14844,28.101565Q4.25781,25.484375,7.57812,24.585937L7.57812,31.265625L5.50781,31.265625L5.50781,34.312505L7.57812,34.312505L7.57812,35.640625Q7.53906,40.679725000000005,12.4609,40.601524999999995Q12.9688,40.601524999999995,13.6328,40.523425Q14.2578,40.445325,14.6484,40.367225L14.6484,37.593725Q14.2578,37.632825,13.4766,37.632825Q12.2656,37.632825,11.7188,37.125025Q11.2109,36.578125,11.2109,35.406225L11.2109,34.312505L14.4922,34.312505L13.9062,31.265625L11.2109,31.265625L11.2109,24.390625Q15,24.9375,17.4609,27.671875Q19.9219,30.406245,20,34.312505Z" fill="#9CA3AF" fill-opacity="1" style="mix-blend-mode:passthrough"/></g></g></g></g></g></svg>