<svg xmlns="http://www.w3.org/2000/svg" xmlns:xlink="http://www.w3.org/1999/xlink" fill="none" version="1.1" width="64" height="64" viewBox="0 0 64 64"><defs><clipPath id="master_svg0_3_1263"><rect x="20" y="20" width="24" height="24" rx="0"/></clipPath></defs><g><rect x="0" y="0" width="64" height="64" rx="32" fill="#000000" fill-opacity="0.10000000149011612" style="mix-blend-mode:passthrough"/><g><rect x="20" y="16" width="24" height="32" rx="0" fill="#000000" fill-opacity="0" style="mix-blend-mode:passthrough"/><g clip-path="url(#master_svg0_3_1263)"><g transform="matrix(1,0,0,-1,0,89.03125)"><g><path d="M32,66.265625Q27.875,66.171825,25.10938,63.406225Q22.34375,60.640625,22.25,56.515625L22.25,54.640625Q22.15625,53.609375,21.125,53.515625Q20.09375,53.609375,20,54.640625L20,56.515625Q20.046875,59.890625,21.64062,62.562525Q23.23438,65.281225,25.95312,66.875025Q28.625,68.468725,32,68.515625Q35.375,68.468725,38.0469,66.875025Q40.7656,65.281225,42.3594,62.562525Q43.9531,59.890625,44,56.515625L44,49.765625Q43.9531,48.031245,42.7812,46.859375Q41.6094,45.687505,39.875,45.640625L34.7188,45.640625Q34.0625,44.5625,32.75,44.515625L31.25,44.515625Q30.3125,44.5625,29.65625,45.171875Q29.04688,45.828125,29,46.765625Q29.04688,47.703125,29.65625,48.359375Q30.3125,48.968745,31.25,49.015625L32.75,49.015625Q34.0625,48.968745,34.7188,47.890625L39.875,47.890625Q40.6719,47.890625,41.1875,48.453125Q41.75,48.968745,41.75,49.765625L41.75,56.515625Q41.6562,60.640625,38.8906,63.406225Q36.125,66.171825,32,66.265625ZM26.75,58.765625L27.5,58.765625L26.75,58.765625L27.5,58.765625Q28.15625,58.765625,28.57812,58.343725Q29,57.921825,29,57.265625L29,52.015625Q29,51.359375,28.57812,50.937505Q28.15625,50.515625,27.5,50.515625L26.75,50.515625Q25.48438,50.562505,24.64062,51.406245Q23.79688,52.250005,23.75,53.515625L23.75,55.765625Q23.79688,57.031225,24.64062,57.875025Q25.48438,58.718725,26.75,58.765625ZM37.25,58.765625Q38.5156,58.718725,39.3594,57.875025Q40.2031,57.031225,40.25,55.765625L40.25,53.515625Q40.2031,52.250005,39.3594,51.406245Q38.5156,50.562505,37.25,50.515625L36.5,50.515625Q35.8438,50.515625,35.4219,50.937505Q35,51.359375,35,52.015625L35,57.265625Q35,57.921825,35.4219,58.343725Q35.8438,58.765625,36.5,58.765625L37.25,58.765625Z" fill="#000000" fill-opacity="1" style="mix-blend-mode:passthrough"/></g></g></g></g></g></svg>