<svg xmlns="http://www.w3.org/2000/svg" xmlns:xlink="http://www.w3.org/1999/xlink" fill="none" version="1.1" width="64" height="64" viewBox="0 0 64 64"><defs><clipPath id="master_svg0_3_1258"><rect x="23" y="20" width="18" height="24" rx="0"/></clipPath></defs><g><rect x="0" y="0" width="64" height="64" rx="32" fill="#000000" fill-opacity="0.10000000149011612" style="mix-blend-mode:passthrough"/><g><rect x="23" y="16" width="18" height="32" rx="0" fill="#000000" fill-opacity="0" style="mix-blend-mode:passthrough"/><g clip-path="url(#master_svg0_3_1258)"><g transform="matrix(1,0,0,-1,0,89.03125)"><g><path d="M32,68.515625Q30.5,68.468725,29.375,67.671825Q28.25,66.828125,27.78125,65.515625L26,65.515625Q24.73438,65.468725,23.890625,64.625025Q23.046875,63.781225,23,62.515625L23,47.515625Q23.046875,46.250005,23.890625,45.40625Q24.73438,44.5625,26,44.515625L38,44.515625Q39.2656,44.5625,40.1094,45.40625Q40.9531,46.250005,41,47.515625L41,62.515625Q40.9531,63.781225,40.1094,64.625025Q39.2656,65.468725,38,65.515625L36.2656,65.515625Q35.75,66.828125,34.625,67.671825Q33.5,68.468725,32,68.515625ZM32,65.515625Q32.65625,65.515625,33.0781,65.093725Q33.5,64.671825,33.5,64.015625Q33.5,63.359425,33.0781,62.937525Q32.65625,62.515625,32,62.515625Q31.34375,62.515625,30.92188,62.937525Q30.5,63.359425,30.5,64.015625Q30.5,64.671825,30.92188,65.093725Q31.34375,65.515625,32,65.515625ZM26.375,55.765625Q26.46875,56.796825,27.5,56.890625Q28.53125,56.796825,28.625,55.765625Q28.53125,54.734425,27.5,54.640625Q26.46875,54.734425,26.375,55.765625ZM31.25,56.515625L37.25,56.515625L31.25,56.515625L37.25,56.515625Q37.9531,56.468725,38,55.765625Q37.9531,55.062525,37.25,55.015625L31.25,55.015625Q30.54688,55.062525,30.5,55.765625Q30.54688,56.468725,31.25,56.515625ZM26.375,51.265625Q26.46875,52.296875,27.5,52.390625Q28.53125,52.296875,28.625,51.265625Q28.53125,50.234375,27.5,50.140625Q26.46875,50.234375,26.375,51.265625ZM30.5,51.265625Q30.54688,51.968745,31.25,52.015625L37.25,52.015625Q37.9531,51.968745,38,51.265625Q37.9531,50.562505,37.25,50.515625L31.25,50.515625Q30.54688,50.562505,30.5,51.265625Z" fill="#000000" fill-opacity="1" style="mix-blend-mode:passthrough"/></g></g></g></g></g></svg>