<svg xmlns="http://www.w3.org/2000/svg" xmlns:xlink="http://www.w3.org/1999/xlink" fill="none" version="1.1" width="64" height="64" viewBox="0 0 64 64"><defs><clipPath id="master_svg0_3_1253"><rect x="20" y="20" width="24" height="24" rx="0"/></clipPath></defs><g><rect x="0" y="0" width="64" height="64" rx="32" fill="#000000" fill-opacity="0.10000000149011612" style="mix-blend-mode:passthrough"/><g><rect x="20" y="16" width="24" height="32" rx="0" fill="#000000" fill-opacity="0" style="mix-blend-mode:passthrough"/><g clip-path="url(#master_svg0_3_1253)"><g transform="matrix(1,0,0,-1,0,89.03125)"><g><path d="M28.625,68.515625Q29.75,68.468725,30.5,67.765625Q31.2031,67.015625,31.25,65.890625L31.25,47.140625Q31.2031,46.015625,30.5,45.265625Q29.75,44.5625,28.625,44.515625Q27.59375,44.515625,26.84375,45.171875Q26.14062,45.828125,26,46.859375Q25.625,46.765625,25.25,46.765625Q23.98438,46.812505,23.14062,47.656245Q22.29688,48.500005,22.25,49.765625Q22.25,50.281245,22.4375,50.750005Q21.35938,51.171875,20.65625,52.109375Q20,53.046875,20,54.265625Q20,55.390625,20.609375,56.281225Q21.17188,57.171825,22.15625,57.640625Q21.5,58.437525,21.5,59.515625Q21.5,60.593725,22.15625,61.390625Q22.8125,62.187525,23.84375,62.468725Q23.75,62.843725,23.75,63.265625Q23.75,64.343725,24.40625,65.140625Q25.01562,65.890625,26,66.171825Q26.14062,67.203125,26.84375,67.859425Q27.59375,68.515625,28.625,68.515625ZM35.375,68.515625Q36.4062,68.515625,37.1562,67.859425Q37.8594,67.203125,38,66.171825Q38.9844,65.890625,39.5938,65.140625Q40.25,64.343725,40.25,63.265625Q40.25,62.843725,40.1562,62.468725Q41.1875,62.187525,41.8438,61.390625Q42.5,60.593725,42.5,59.515625Q42.5,58.437525,41.8438,57.640625Q42.8281,57.171825,43.3906,56.281225Q44,55.390625,44,54.265625Q44,53.046875,43.3438,52.109375Q42.6406,51.171875,41.5625,50.750005Q41.75,50.281245,41.75,49.765625Q41.7031,48.500005,40.8594,47.656245Q40.0156,46.812505,38.75,46.765625Q38.375,46.765625,38,46.859375Q37.8594,45.828125,37.1562,45.171875Q36.4062,44.515625,35.375,44.515625Q34.25,44.5625,33.5,45.265625Q32.7969,46.015625,32.75,47.140625L32.75,65.890625Q32.7969,67.015625,33.5,67.765625Q34.25,68.468725,35.375,68.515625Z" fill="#000000" fill-opacity="1" style="mix-blend-mode:passthrough"/></g></g></g></g></g></svg>