<svg xmlns="http://www.w3.org/2000/svg" xmlns:xlink="http://www.w3.org/1999/xlink" fill="none" version="1.1" width="17.5" height="28" viewBox="0 0 17.5 28"><defs><clipPath id="master_svg0_3_1293"><rect x="0" y="4" width="17.5" height="20" rx="0"/></clipPath></defs><g><rect x="0" y="0" width="17.5" height="28" rx="0" fill="#000000" fill-opacity="0" style="mix-blend-mode:passthrough"/><g><rect x="0" y="0" width="17.5" height="28" rx="0" fill="#000000" fill-opacity="0" style="mix-blend-mode:passthrough"/><g clip-path="url(#master_svg0_3_1293)"><g transform="matrix(1,0,0,-1,0,46.4375)"><g><path d="M8.75,36.46095Q6.83594,36.42185,5.58594,35.13285Q4.29688,33.88285,4.25781,31.96875Q4.29688,30.05469,5.58594,28.80469Q6.83594,27.51563,8.75,27.47656Q10.6641,27.51563,11.9141,28.80469Q13.2031,30.05469,13.2422,31.96875Q13.2031,33.88285,11.9141,35.13285Q10.6641,36.42185,8.75,36.46095ZM8.75,29.03906Q7.5,29.07813,6.67969,29.89844Q5.85938,30.71875,5.82031,31.96875Q5.85938,33.21875,6.67969,34.03905Q7.5,34.85935,8.75,34.89845Q10,34.85935,10.8203,34.03905Q11.6406,33.21875,11.6797,31.96875Q11.6406,30.71875,10.8203,29.89844Q10,29.07813,8.75,29.03906ZM14.4922,36.65625Q14.375,35.67965,13.4375,35.60155Q12.4609,35.67965,12.3828,36.65625Q12.3828,37.08595,12.6953,37.39845Q12.9688,37.67185,13.4375,37.67185Q13.8672,37.67185,14.1797,37.39845Q14.4531,37.08595,14.4922,36.65625ZM17.4609,35.56255Q17.4609,37.71095,16.0156,39.23435Q14.4922,40.679649999999995,12.3828,40.679649999999995Q11.6016,40.71875,10.1562,40.71875Q8.75,40.71875,7.34375,40.71875Q5.89844,40.71875,5.15625,40.679649999999995Q3.04688,40.679649999999995,1.48438,39.23435Q0.0390625,37.71095,0.078125,35.60155Q0,34.82035,0,33.37495Q0,31.96875,0,30.5625Q0,29.15625,0.078125,28.375Q0.0390625,26.22656,1.48438,24.70313Q3.00781,23.2578125,5.15625,23.296875Q5.89844,23.2578125,7.34375,23.21875Q8.75,23.21875,10.1562,23.21875Q11.6016,23.2578125,12.3828,23.296875Q14.4922,23.2578125,16.0156,24.70313Q17.4609,26.22656,17.4609,28.375Q17.5,29.15625,17.5,30.5625Q17.5,31.96875,17.5,33.37495Q17.5,34.82035,17.4609,35.60155L17.4609,35.56255ZM15.5859,26.8125Q15.0781,25.64063,13.9062,25.13281Q13.125,24.85937,11.7969,24.82031Q10.4688,24.78125,9.375,24.78125Q9.02344,24.78125,8.75,24.78125Q8.47656,24.78125,8.125,24.78125Q7.03125,24.78125,5.70312,24.82031Q4.41406,24.85937,3.59375,25.13281Q2.42188,25.64063,1.91406,26.8125Q1.64062,27.63281,1.60156,28.92187Q1.5625,30.25,1.5625,31.34375Q1.5625,31.69531,1.5625,31.96875Q1.5625,32.24219,1.5625,32.59375Q1.5625,33.68755,1.60156,35.01565Q1.64062,36.34375,1.91406,37.12495Q2.42188,38.29685,3.59375,38.80465Q4.41406,39.07815,5.70312,39.11715Q7.03125,39.19535,8.125,39.15625Q8.47656,39.15625,8.75,39.15625Q9.02344,39.15625,9.375,39.15625Q10.4688,39.15625,11.7969,39.11715Q13.125,39.07815,13.9062,38.80465Q15.0781,38.29685,15.5859,37.12495Q15.8594,36.34375,15.8984,35.01565Q15.9766,33.68755,15.9375,32.59375Q15.9375,32.24219,15.9375,31.96875Q15.9375,31.69531,15.9375,31.34375Q15.9766,30.25,15.8984,28.92187Q15.8594,27.59375,15.5859,26.8125Z" fill="#9CA3AF" fill-opacity="1" style="mix-blend-mode:passthrough"/></g></g></g></g></g></svg>