<svg xmlns="http://www.w3.org/2000/svg" xmlns:xlink="http://www.w3.org/1999/xlink" fill="none" version="1.1" width="17.5" height="28" viewBox="0 0 17.5 28"><defs><clipPath id="master_svg0_3_1298"><rect x="0" y="4" width="17.5" height="20" rx="0"/></clipPath></defs><g><rect x="0" y="0" width="17.5" height="28" rx="0" fill="#000000" fill-opacity="0" style="mix-blend-mode:passthrough"/><g><rect x="0" y="0" width="17.5" height="28" rx="0" fill="#000000" fill-opacity="0" style="mix-blend-mode:passthrough"/><g clip-path="url(#master_svg0_3_1298)"><g transform="matrix(1,0,0,-1,0,46.4375)"><g><path d="M16.25,40.71875L1.25,40.71875L16.25,40.71875L1.25,40.71875Q0.703125,40.71875,0.351562,40.367149999999995Q0,39.97655,0,39.46875L0,24.46875Q0,23.960938,0.351562,23.570312Q0.703125,23.21875,1.25,23.21875L16.25,23.21875Q16.7969,23.21875,17.1484,23.570312Q17.5,23.960938,17.5,24.46875L17.5,39.46875Q17.5,39.97655,17.1484,40.367149999999995Q16.7969,40.71875,16.25,40.71875ZM5.27344,25.71875L2.69531,25.71875L5.27344,25.71875L2.69531,25.71875L2.69531,34.07815L5.3125,34.07815L5.3125,25.71875L5.27344,25.71875ZM3.98438,35.21095Q3.35938,35.21095,2.92969,35.64065Q2.5,36.07035,2.5,36.69535Q2.5,37.35935,2.92969,37.78905Q3.35938,38.21875,3.98438,38.21875Q4.64844,38.21875,5.03906,37.78905Q5.46875,37.35935,5.50781,36.69535Q5.46875,36.07035,5.03906,35.64065Q4.64844,35.21095,3.98438,35.21095ZM15,25.71875L12.4219,25.71875L15,25.71875L12.4219,25.71875L12.4219,29.78125Q12.4609,30.5625,12.2266,31.26563Q12.0312,31.92969,11.0547,32.00781Q10.0781,31.96875,9.76562,31.34375Q9.49219,30.71875,9.53125,29.85937L9.53125,25.71875L6.91406,25.71875L6.91406,34.07815L9.41406,34.07815L9.41406,32.94531L9.45312,32.94531Q9.6875,33.45315,10.3125,33.84375Q10.9375,34.27345,11.9141,34.27345Q13.8281,34.23435,14.4531,33.14063Q15.0781,32.00781,15,30.28906L15,25.71875Z" fill="#9CA3AF" fill-opacity="1" style="mix-blend-mode:passthrough"/></g></g></g></g></g></svg>