<svg xmlns="http://www.w3.org/2000/svg" xmlns:xlink="http://www.w3.org/1999/xlink" fill="none" version="1.1" width="20" height="16" viewBox="0 0 20 16"><defs><clipPath id="master_svg0_3_1273"><rect x="0" y="0" width="16.0625" height="16" rx="0"/></clipPath></defs><g><rect x="0" y="0" width="20" height="16" rx="0" fill="#000000" fill-opacity="0" style="mix-blend-mode:passthrough"/><g clip-path="url(#master_svg0_3_1273)"><g transform="matrix(1,0,0,-1,0,32.6875)"><g><path d="M5.15625,31.56255Q4.96875,32.03125,4.5625,32.21875Q4.125,32.40625,3.65625,32.31255L0.90625,31.56255Q0.0625,31.24995,0,30.34375Q0.03125,26.43755,1.90625,23.28125Q3.78125,20.125,6.9375,18.25Q10.0938,16.375,14,16.34375Q14.9062,16.40625,15.2188,17.25L15.9688,20Q16.0625,20.46875,15.875,20.90625Q15.6875,21.3125,15.2188,21.5L12.2188,22.75Q11.375,23.03125,10.7812,22.375L9.53125,20.84375Q7.875,21.625,6.5625,22.90625Q5.28125,24.21875,4.5,25.875L6.03125,27.12495Q6.6875,27.71875,6.40625,28.56255L5.15625,31.56255Z" fill="#9CA3AF" fill-opacity="1" style="mix-blend-mode:passthrough"/></g></g></g></g></svg>