<svg xmlns="http://www.w3.org/2000/svg" xmlns:xlink="http://www.w3.org/1999/xlink" fill="none" version="1.1" width="20" height="28" viewBox="0 0 20 28"><defs><clipPath id="master_svg0_3_1288"><rect x="0" y="4" width="20" height="20" rx="0"/></clipPath></defs><g><rect x="0" y="0" width="20" height="28" rx="0" fill="#000000" fill-opacity="0" style="mix-blend-mode:passthrough"/><g><rect x="0" y="0" width="20" height="28" rx="0" fill="#000000" fill-opacity="0" style="mix-blend-mode:passthrough"/><g clip-path="url(#master_svg0_3_1288)"><g transform="matrix(1,0,0,-1,0,45.1875)"><g><path d="M17.9297,34.78125Q17.9688,34.50785,17.9688,34.27345Q17.9688,31.5,16.6016,28.84375Q15.2734,26.1875,12.6562,24.42969Q10.0781,22.671875,6.28906,22.59375Q2.77344,22.6328125,0,24.42969Q0.46875,24.39063,0.976562,24.39063Q3.90625,24.42969,6.09375,26.14844Q4.6875,26.1875,3.67188,26.96875Q2.65625,27.75,2.26562,28.96094Q2.61719,28.92187,3.00781,28.92187Q3.59375,28.92187,4.10156,29.03906Q2.65625,29.35156,1.75781,30.44531Q0.859375,31.53906,0.820312,33.06255L0.820312,33.14065Q1.64062,32.67185,2.65625,32.59375Q0.9375,33.80465,0.820312,36.03125Q0.859375,37.16405,1.40625,38.10155Q2.92969,36.22655,5.11719,35.09375Q7.26562,33.96095,9.84375,33.80465Q9.76562,34.27345,9.76562,34.74215Q9.80469,36.46095,10.9375,37.63285Q12.1094,38.804649999999995,13.8281,38.84375Q15.6641,38.804649999999995,16.8359,37.55465Q18.2422,37.82815,19.4531,38.53125Q18.9453,37.08595,17.6562,36.26565Q18.8672,36.42185,20,36.92965Q19.1406,35.67965,17.9297,34.78125Z" fill="#9CA3AF" fill-opacity="1" style="mix-blend-mode:passthrough"/></g></g></g></g></g></svg>