<svg xmlns="http://www.w3.org/2000/svg" xmlns:xlink="http://www.w3.org/1999/xlink" fill="none" version="1.1" width="64" height="64" viewBox="0 0 64 64"><defs><clipPath id="master_svg0_3_1303"><rect x="23" y="20" width="18" height="24" rx="0"/></clipPath></defs><g><rect x="0" y="0" width="64" height="64" rx="32" fill="#000000" fill-opacity="0.10000000149011612" style="mix-blend-mode:passthrough"/><g><rect x="23" y="16" width="18" height="32" rx="0" fill="#000000" fill-opacity="0" style="mix-blend-mode:passthrough"/><g clip-path="url(#master_svg0_3_1303)"><g transform="matrix(1,0,0,-1,0,89.03125)"><g><path d="M32,68.515625Q30.5,68.468725,29.375,67.671825Q28.25,66.828125,27.78125,65.515625L26,65.515625Q24.73438,65.468725,23.890625,64.625025Q23.046875,63.781225,23,62.515625L23,47.515625Q23.046875,46.250005,23.890625,45.40625Q24.73438,44.5625,26,44.515625L38,44.515625Q39.2656,44.5625,40.1094,45.40625Q40.9531,46.250005,41,47.515625L41,62.515625Q40.9531,63.781225,40.1094,64.625025Q39.2656,65.468725,38,65.515625L36.2656,65.515625Q35.75,66.828125,34.625,67.671825Q33.5,68.468725,32,68.515625ZM32,65.515625Q32.65625,65.515625,33.0781,65.093725Q33.5,64.671825,33.5,64.015625Q33.5,63.359425,33.0781,62.937525Q32.65625,62.515625,32,62.515625Q31.34375,62.515625,30.92188,62.937525Q30.5,63.359425,30.5,64.015625Q30.5,64.671825,30.92188,65.093725Q31.34375,65.515625,32,65.515625ZM37.2969,55.718725L31.29688,49.718745L37.2969,55.718725L31.29688,49.718745Q30.5,49.062505,29.70312,49.718745L26.70312,52.718745Q26.04688,53.515625,26.70312,54.312505Q27.5,54.968725,28.29688,54.312505L30.5,52.109375L35.7031,57.312525Q36.5,57.968725,37.2969,57.312525Q37.9531,56.515625,37.2969,55.718725Z" fill="#000000" fill-opacity="1" style="mix-blend-mode:passthrough"/></g></g></g></g></g></svg>