<svg xmlns="http://www.w3.org/2000/svg" xmlns:xlink="http://www.w3.org/1999/xlink" fill="none" version="1.1" width="64" height="64" viewBox="0 0 64 64"><defs><clipPath id="master_svg0_3_1308"><rect x="20" y="20" width="24" height="24" rx="0"/></clipPath></defs><g><rect x="0" y="0" width="64" height="64" rx="32" fill="#000000" fill-opacity="0.10000000149011612" style="mix-blend-mode:passthrough"/><g><rect x="20" y="16" width="24" height="32" rx="0" fill="#000000" fill-opacity="0" style="mix-blend-mode:passthrough"/><g clip-path="url(#master_svg0_3_1308)"><g transform="matrix(1,0,0,-1,0,86.03125)"><g><path d="M23,62.515625Q23,63.171825,22.57812,63.593725Q22.15625,64.015625,21.5,64.015625Q20.84375,64.015625,20.421875,63.593725Q20,63.171825,20,62.515625L20,46.765625Q20.046875,45.171875,21.07812,44.093745Q22.15625,43.0625,23.75,43.015625L42.5,43.015625Q43.1562,43.015625,43.5781,43.4375Q44,43.859375,44,44.515625Q44,45.171875,43.5781,45.593745Q43.1562,46.015625,42.5,46.015625L23.75,46.015625Q23.04688,46.062505,23,46.765625L23,62.515625ZM42.0781,58.437525Q42.5,58.906225,42.5,59.515625Q42.5,60.125025,42.0781,60.593725Q41.6094,61.015625,41,61.015625Q40.3906,61.015625,39.9219,60.593725L35,55.625025L32.3281,58.343725Q31.8594,58.765625,31.25,58.765625Q30.6406,58.765625,30.1719,58.343725L24.92188,53.093725Q24.5,52.625005,24.5,52.015625Q24.5,51.406245,24.92188,50.937505Q25.39062,50.515625,26,50.515625Q26.60938,50.515625,27.07812,50.937505L31.25,55.156225L33.9219,52.437505Q34.3906,52.015625,35,52.015625Q35.6094,52.015625,36.0781,52.437505L42.0781,58.437525Z" fill="#000000" fill-opacity="1" style="mix-blend-mode:passthrough"/></g></g></g></g></g></svg>