<svg xmlns="http://www.w3.org/2000/svg" xmlns:xlink="http://www.w3.org/1999/xlink" fill="none" version="1.1" width="64" height="64" viewBox="0 0 64 64"><defs><clipPath id="master_svg0_3_1313"><rect x="20" y="20" width="24" height="24" rx="0"/></clipPath></defs><g><rect x="0" y="0" width="64" height="64" rx="32" fill="#000000" fill-opacity="0.10000000149011612" style="mix-blend-mode:passthrough"/><g><rect x="20" y="16" width="24" height="32" rx="0" fill="#000000" fill-opacity="0" style="mix-blend-mode:passthrough"/><g clip-path="url(#master_svg0_3_1313)"><g transform="matrix(1,0,0,-1,0,84.53128051757812)"><g><path d="M27.352630528354645,62.23434025878906Q28.046270528354647,61.484440258789064,27.445120528354643,60.64064025878906L24.115640528354646,56.89064025878906Q23.791940528354644,56.51564025878906,23.329510528354646,56.51564025878906Q22.820840528354644,56.51564025878906,22.497140528354645,56.84374025878906L20.647429528354646,58.71874025878906Q20.000031528354643,59.51564025878906,20.647429528354646,60.31254025878906Q21.433560528354644,60.96874025878906,22.219680528354644,60.31254025878906L23.237020528354645,59.28124025878906L25.780380528354645,62.14064025878906Q26.520260528354644,62.84374025878906,27.352630528354645,62.23434025878906ZM27.352630528354645,54.734440258789064Q28.046270528354647,53.984440258789064,27.445120528354643,53.14064025878906L24.115640528354646,49.39064025878906Q23.791940528354644,49.01564025878906,23.329510528354646,49.01564025878906Q22.820840528354644,49.01564025878906,22.497140528354645,49.34376025878906L20.647429528354646,51.21876025878906Q20.000031528354643,52.01564025878906,20.647429528354646,52.81254025878906Q21.433560528354644,53.46874025878906,22.219680528354644,52.81254025878906L23.237020528354645,51.78126025878906L25.780380528354645,54.64064025878906Q26.520260528354644,55.34374025878906,27.352630528354645,54.734440258789064ZM30.682130528354644,59.51564025878906Q30.682130528354644,60.17184025878906,31.098330528354644,60.59374025878906Q31.514530528354644,61.01564025878906,32.161930528354645,61.01564025878906L42.520230528354645,61.01564025878906Q43.16763052835465,61.01564025878906,43.583830528354646,60.59374025878906Q44.00003052835464,60.17184025878906,44.00003052835464,59.51564025878906Q44.00003052835464,58.859440258789064,43.583830528354646,58.43754025878906Q43.16763052835465,58.01564025878906,42.520230528354645,58.01564025878906L32.161930528354645,58.01564025878906Q31.514530528354644,58.01564025878906,31.098330528354644,58.43754025878906Q30.682130528354644,58.859440258789064,30.682130528354644,59.51564025878906ZM30.682130528354644,52.01564025878906Q30.682130528354644,52.67184025878906,31.098330528354644,53.09374025878906Q31.514530528354644,53.51564025878906,32.161930528354645,53.51564025878906L42.520230528354645,53.51564025878906Q43.16763052835465,53.51564025878906,43.583830528354646,53.09374025878906Q44.00003052835464,52.67184025878906,44.00003052835464,52.01564025878906Q44.00003052835464,51.35939025878906,43.583830528354646,50.937520258789064Q43.16763052835465,50.51564025878906,42.520230528354645,50.51564025878906L32.161930528354645,50.51564025878906Q31.514530528354644,50.51564025878906,31.098330528354644,50.937520258789064Q30.682130528354644,51.35939025878906,30.682130528354644,52.01564025878906ZM27.722570528354645,44.51564025878906Q27.722570528354645,45.17189025878906,28.138760528354645,45.59376025878906Q28.554940528354646,46.01564025878906,29.202340528354647,46.01564025878906L42.520230528354645,46.01564025878906Q43.16763052835465,46.01564025878906,43.583830528354646,45.59376025878906Q44.00003052835464,45.17189025878906,44.00003052835464,44.51564025878906Q44.00003052835464,43.85939025878906,43.583830528354646,43.43751025878906Q43.16763052835465,43.01564025878906,42.520230528354645,43.01564025878906L29.202340528354647,43.01564025878906Q28.554940528354646,43.01564025878906,28.138760528354645,43.43751025878906Q27.722570528354645,43.85939025878906,27.722570528354645,44.51564025878906ZM22.543380528354646,46.76564025878906Q23.791940528354644,46.71876025878906,24.485580528354646,45.64064025878906Q25.040490528354646,44.51564025878906,24.485580528354646,43.39064025878906Q23.791940528354644,42.31251525878906,22.543380528354646,42.26564025878906Q21.294828528354646,42.31251525878906,20.601187528354643,43.39064025878906Q20.046273528354646,44.51564025878906,20.601187528354643,45.64064025878906Q21.294828528354646,46.71876025878906,22.543380528354646,46.76564025878906Z" fill="#000000" fill-opacity="1" style="mix-blend-mode:passthrough"/></g></g></g></g></g></svg>