<svg xmlns="http://www.w3.org/2000/svg" xmlns:xlink="http://www.w3.org/1999/xlink" fill="none" version="1.1" width="64" height="64" viewBox="0 0 64 64"><defs><clipPath id="master_svg0_3_1318"><rect x="17" y="20" width="29.953125" height="24" rx="0"/></clipPath></defs><g><rect x="0" y="0" width="64" height="64" rx="32" fill="#000000" fill-opacity="0.10000000149011612" style="mix-blend-mode:passthrough"/><g><rect x="17" y="16" width="30" height="32" rx="0" fill="#000000" fill-opacity="0" style="mix-blend-mode:passthrough"/><g clip-path="url(#master_svg0_3_1318)"><g transform="matrix(1,0,0,-1,0,89.03125)"><g><path d="M21.5,62.515625Q21.5,64.156225,22.29688,65.515625Q23.09375,66.875025,24.5,67.718725Q25.90625,68.515625,27.5,68.515625Q29.0938,68.515625,30.5,67.718725Q31.9062,66.875025,32.7031,65.515625Q33.5,64.156225,33.5,62.515625Q33.5,60.875025,32.7031,59.515625Q31.9062,58.156225,30.5,57.312525Q29.0938,56.515625,27.5,56.515625Q25.90625,56.515625,24.5,57.312525Q23.09375,58.156225,22.29688,59.515625Q21.5,60.875025,21.5,62.515625ZM17,45.921875Q17.09375,49.437505,19.4375,51.828125Q21.82812,54.171875,25.34375,54.265625L29.6562,54.265625Q33.1719,54.171875,35.5625,51.828125Q37.9062,49.437505,38,45.921875Q38,45.3125,37.5781,44.9375Q37.2031,44.515625,36.5938,44.515625L18.40625,44.515625Q17.796875,44.515625,17.421875,44.9375Q17,45.3125,17,45.921875ZM46.2969,60.218725L40.2969,54.218745L46.2969,60.218725L40.2969,54.218745Q39.5,53.562505,38.7031,54.218745L35.7031,57.218725Q35.0469,58.015625,35.7031,58.812525Q36.5,59.468725,37.2969,58.812525L39.5,56.609425L44.7031,61.812525Q45.5,62.468725,46.2969,61.812525Q46.9531,61.015625,46.2969,60.218725Z" fill="#000000" fill-opacity="1" style="mix-blend-mode:passthrough"/></g></g></g></g></g></svg>